<?xml version="1.0" encoding="UTF-8"?>
<svg xmlns="http://www.w3.org/2000/svg" xmlns:xlink="http://www.w3.org/1999/xlink" width="20pt" height="23pt" viewBox="0 0 20 23" version="1.1">
<g id="surface1">
<path style=" stroke:none;fill-rule:nonzero;fill:rgb(0.784314%,0.784314%,0.784314%);fill-opacity:1;" d="M 20 23 L 0 23 L 0 3.285156 L 20 3.285156 Z M 0.945312 22.070312 L 19.027344 22.070312 L 19.027344 4.242188 L 0.945312 4.242188 Z M 0.945312 22.070312 "/>
<path style=" stroke:none;fill-rule:nonzero;fill:rgb(0.784314%,0.784314%,0.784314%);fill-opacity:1;" d="M 13.554688 6.433594 L 12.582031 6.433594 L 12.582031 1.917969 C 12.582031 1.367188 12.140625 0.929688 11.582031 0.929688 L 8.417969 0.929688 C 7.859375 0.929688 7.417969 1.367188 7.417969 1.917969 L 7.417969 6.433594 L 6.445312 6.433594 L 6.445312 1.917969 C 6.445312 0.847656 7.332031 0 8.390625 0 L 11.554688 0 C 12.640625 0 13.5 0.875 13.5 1.917969 Z M 13.554688 6.433594 "/>
</g>
</svg>
